# xmcd CD database file
#
# Track frame offsets:
#	150
#	9603
#	24149
#	36153
#	53053
#	64905
#	79111
#	91071
#	106456
#	121880
#	135556
#	155636
#	169731
#	182424
#	192176
#	206691
#	222664
#	236751
#	248888
#	260982
#	273742
#	292122
#	305239
#
# Disc length: 4286 seconds
#
# Revision: 0
# Processed by: cddbd v1.5.2PL0 Copyright (c) Steve Scherf et al.
# Submitted via: CDex 1.51
#
DISCID=5910bc17
DTITLE=Kiri Te Kanawa - Sings Berlin, Gershwin e Kern
DYEAR=1900
DGENRE=Jazz
TTITLE0=Irving Berlin - Let's Face The Music And Dance
TTITLE1=Irving Berlin - I Got The Sun In The Morning
TTITLE2=Irving Berlin - How Deep Is The Ocean
TTITLE3=Irving Berlin - What'll I Do
TTITLE4=Irving Berlin - Blue Skies
TTITLE5=Irving Berlin - It's A Lovely Day Today
TTITLE6=Irving Berlin - They Say It's Wonderful
TTITLE7=Irving Berlin - Say It Isn't So
TTITLE8=Irving Berlin - Cheek To Cheek
TTITLE9=Irving Berlin - Isn't This A Lovely Day
TTITLE10=Irving Berlin - Always
TTITLE11=Irving Berlin - The Song Is Ended
TTITLE12=Irving Berlin - I've Got My Love To Keep Me Warm
TTITLE13=Irving Berlin - It Only Happens When I Dance With You
TTITLE14=Irving Berlin - Easter Parade
TTITLE15=George Gershwin - I Got Rhythm
TTITLE16=George Gershwin - Love Walked In
TTITLE17=George Gershwin - Someone To Watch Over Me
TTITLE18=George Gershwin - Summertime
TTITLE19=George Gershwin - By Strauss
TTITLE20=Jerome Kern - The Folks Who Live On The Hill
TTITLE21=Jerome Kern - Smoke Gets In Your Eyes
TTITLE22=Jerome Kern - The Last Time I Saw Paris
EXTD=
EXTT0=
EXTT1=
EXTT2=
EXTT3=
EXTT4=
EXTT5=
EXTT6=
EXTT7=
EXTT8=
EXTT9=
EXTT10=
EXTT11=
EXTT12=
EXTT13=
EXTT14=
EXTT15=
EXTT16=
EXTT17=
EXTT18=
EXTT19=
EXTT20=
EXTT21=
EXTT22=
PLAYORDER=
